<svg width="31" height="32" viewBox="0 0 31 32" fill="none" xmlns="http://www.w3.org/2000/svg">
	<path fill-rule="evenodd" clip-rule="evenodd" d="M28.2592 19.4531C29.4239 19.4531 30.3682 18.5089 30.3682 17.3441L30.3682 14.7708C30.3682 13.606 29.4239 12.6618 28.2592 12.6618L11.9983 12.6618L18.7885 5.87162C19.6121 5.04801 19.6121 3.71267 18.7885 2.88905L17.0157 1.11629C16.1921 0.292674 14.8567 0.292676 14.0331 1.11629L2.67407 12.4754C2.57453 12.5451 2.47967 12.6244 2.39077 12.7133L0.618003 14.486C0.200429 14.9036 -0.00543524 15.4527 0.000414572 16C-0.00544101 16.5473 0.200421 17.0964 0.618003 17.514L2.39077 19.2867C2.47967 19.3757 2.57454 19.455 2.67408 19.5247L14.0331 30.8837C14.8567 31.7073 16.1921 31.7073 17.0157 30.8837L18.7885 29.111C19.6121 28.2873 19.6121 26.952 18.7885 26.1284L12.1132 19.4531L28.2592 19.4531Z" fill="#101010"/>
</svg>
