<svg width="31" height="32" viewBox="0 0 31 32" fill="none" xmlns="http://www.w3.org/2000/svg">
	<path fill-rule="evenodd" clip-rule="evenodd" d="M2.10899 19.4531C0.944227 19.4531 -5.67921e-07 18.5089 -6.18835e-07 17.3441L-7.31321e-07 14.7708C-7.82234e-07 13.606 0.944226 12.6618 2.10899 12.6618L18.3699 12.6618L11.5797 5.87162C10.7561 5.04801 10.7561 3.71267 11.5797 2.88905L13.3525 1.11629C14.1761 0.292674 15.5114 0.292676 16.335 1.11629L27.6941 12.4754C27.7936 12.5451 27.8885 12.6244 27.9774 12.7133L29.7502 14.486C30.1677 14.9036 30.3736 15.4527 30.3677 16C30.3736 16.5473 30.1677 17.0964 29.7502 17.514L27.9774 19.2867C27.8885 19.3757 27.7936 19.455 27.6941 19.5247L16.335 30.8837C15.5114 31.7073 14.1761 31.7073 13.3525 30.8837L11.5797 29.111C10.7561 28.2873 10.7561 26.952 11.5797 26.1284L18.255 19.4531L2.10899 19.4531Z" fill="#101010"/>
</svg>
