<svg width="51" height="50" viewBox="0 0 51 50" fill="none" xmlns="http://www.w3.org/2000/svg">
	<path d="M44.4815 20.832C44.4815 35.4154 25.4942 47.9154 25.4942 47.9154C25.4942 47.9154 6.50684 35.4154 6.50684 20.832C6.50684 15.8592 8.50728 11.0901 12.0681 7.57378C15.6289 4.05747 20.4584 2.08203 25.4942 2.08203C30.5299 2.08203 35.3594 4.05747 38.9203 7.57378C42.4811 11.0901 44.4815 15.8592 44.4815 20.832Z" stroke="#D9A61A" stroke-width="2" stroke-linecap="round" stroke-linejoin="round"/>
	<path d="M25.4942 27.082C28.9896 27.082 31.8233 24.2838 31.8233 20.832C31.8233 17.3803 28.9896 14.582 25.4942 14.582C21.9987 14.582 19.165 17.3803 19.165 20.832C19.165 24.2838 21.9987 27.082 25.4942 27.082Z" stroke="#D9A61A" stroke-width="2" stroke-linecap="round" stroke-linejoin="round"/>
</svg>
