<svg width="1034" height="632" viewBox="0 0 1034 632" fill="none" xmlns="http://www.w3.org/2000/svg">
	<path fill-rule="evenodd" clip-rule="evenodd" d="M588.581 104.575C563.087 95.3338 537.041 89.9937 511.131 88.2744L508.833 138.164C528.746 140.888 548.635 146.105 568.093 153.98L588.581 104.575ZM586.205 162.158C605.336 171.727 622.734 183.51 638.219 197.059L675.792 155.141C655.538 137.906 632.511 123.277 607.011 111.987L586.205 162.158ZM688.837 258.45C678.681 241.029 666.371 224.791 652.088 210.182L689.9 167.998C709.54 187.159 726.11 208.943 739.276 232.528L688.837 258.45ZM249.785 484.085C239.998 462.131 233.4 438.775 230.301 414.78L212.886 416.164C217.114 442.16 224.942 467.402 236.061 491.138L249.785 484.085ZM415.29 98.4361C439.843 91.4631 465.403 87.777 491.276 87.6611L489.037 136.27C468.021 135.117 447.13 136.687 426.844 140.783L415.29 98.4361ZM407.539 145.493L396.363 104.534C372.11 113.293 349.07 125.339 327.96 140.378L348.157 171.306C366.745 160.145 386.724 151.465 407.539 145.493ZM256.762 213.901C272.346 190.448 291.084 169.869 312.149 152.503L331.548 182.208C314.092 194.696 298.157 209.533 284.274 226.501L256.762 213.901ZM272.056 242.764L246.279 230.959C240.791 240.643 235.813 250.753 231.396 261.269C225.956 274.222 221.551 287.35 218.143 300.562L240.575 306.393C242.652 300.066 244.998 293.772 247.621 287.526C254.351 271.493 262.572 256.541 272.056 242.764ZM235.137 325.515L213.858 319.984C209.157 345.542 208.089 371.242 210.384 396.426L228.551 394.981C227.45 371.998 229.557 348.628 235.137 325.515Z" fill="url(#paint0_linear_2041_1856)"/>
	<path d="M620.836 238.694L503.846 379.637L485.877 362.515L620.836 238.694Z" fill="#D9A61A"/>
	<path d="M504.645 387.754C500.048 398.704 487.452 403.854 476.51 399.256C465.568 394.659 460.424 382.055 465.021 371.104C469.617 360.154 482.214 355.004 493.156 359.602C504.097 364.2 509.241 376.804 504.645 387.754Z" fill="#D9A61A"/>
	<defs>
		<linearGradient id="paint0_linear_2041_1856" x1="693.071" y1="91.7012" x2="185.312" y2="527.524" gradientUnits="userSpaceOnUse">
			<stop offset="0.005" stop-color="#E5B736"/>
			<stop offset="1" stop-color="#E5B736" stop-opacity="0"/>
		</linearGradient>
	</defs>
</svg>
